<?xml version="1.0" standalone="no"?>
<!DOCTYPE svg PUBLIC "-//W3C//DTD SVG 20010904//EN"
 "http://www.w3.org/TR/2001/REC-SVG-20010904/DTD/svg10.dtd">
<svg version="1.0" xmlns="http://www.w3.org/2000/svg"
 width="700.000000pt" height="700.000000pt" viewBox="0 0 700.000000 700.000000"
 preserveAspectRatio="xMidYMid meet">
<metadata>
Created by potrace 1.11, written by Peter Selinger 2001-2013
</metadata>
<g transform="translate(0.000000,700.000000) scale(0.100000,-0.100000)"
fill="#000000" stroke="none">
<path d="M3255 6549 c-469 -48 -950 -248 -1320 -546 -111 -90 -281 -260 -367
-368 -134 -170 -290 -436 -358 -612 l-24 -62 -336 -3 -335 -3 -57 -28 c-64
-32 -111 -80 -142 -146 l-21 -46 0 -2110 0 -2110 28 -57 c32 -64 80 -111 146
-142 l46 -21 2985 0 2985 0 46 21 c66 31 114 78 146 142 l28 57 0 2110 0 2110
-21 46 c-31 66 -78 114 -142 146 l-57 28 -335 3 -336 3 -24 62 c-68 176 -224
442 -358 612 -86 108 -256 278 -367 368 -375 303 -851 498 -1334 547 -118 11
-358 11 -476 -1z m405 -579 c612 -54 1149 -391 1467 -919 l51 -86 -839 -3
c-461 -1 -1217 -1 -1678 0 l-839 3 51 86 c241 399 594 682 1035 829 251 84
493 113 752 90z m46 -1580 c218 -17 442 -80 670 -189 165 -79 184 -93 184
-137 0 -40 -37 -84 -70 -84 -12 0 -88 29 -169 65 -291 128 -468 173 -716 182
-366 13 -593 -31 -921 -178 -167 -75 -185 -79 -218 -46 -51 51 -26 102 79 159
159 88 363 164 537 199 163 34 416 45 624 29z m-30 -431 c417 -40 785 -209
1087 -498 115 -110 257 -297 257 -339 0 -7 -13 -27 -30 -43 -23 -24 -37 -30
-62 -27 -27 2 -44 17 -97 83 -84 103 -247 266 -336 336 -283 222 -665 341
-1048 326 -509 -19 -912 -223 -1242 -625 -49 -61 -99 -115 -111 -120 -30 -14
-72 -3 -94 26 -26 32 -25 39 5 96 84 159 347 411 562 540 322 193 727 283
1109 245z m42 -434 c314 -51 615 -219 824 -459 219 -253 338 -563 341 -891 1
-105 -2 -128 -24 -185 -50 -131 -132 -227 -247 -288 -237 -126 -521 -56 -668
165 -52 79 -73 140 -95 278 -23 144 -51 207 -120 269 -99 89 -268 113 -384 54
-62 -32 -139 -112 -168 -176 -19 -41 -22 -63 -21 -182 0 -110 5 -155 27 -241
51 -206 140 -369 285 -521 142 -148 233 -210 437 -295 71 -29 137 -61 147 -70
34 -30 16 -97 -33 -123 -28 -16 -150 20 -275 79 -347 166 -583 445 -715 846
-33 100 -33 100 -33 310 l-1 210 35 69 c105 209 342 329 559 284 103 -21 179
-58 248 -121 109 -100 164 -218 182 -390 11 -105 42 -177 108 -242 77 -77 111
-90 238 -90 97 0 116 3 158 25 60 30 126 100 163 171 26 50 28 62 27 159 -3
246 -71 468 -206 670 -59 88 -238 270 -318 323 -140 91 -312 161 -472 192 -95
18 -319 21 -412 5 -393 -70 -718 -307 -895 -655 -98 -194 -124 -333 -117 -625
6 -205 15 -268 66 -458 46 -168 42 -204 -26 -218 -63 -13 -94 30 -140 196 -58
207 -67 280 -67 525 -1 181 3 248 17 313 97 468 407 832 859 1011 82 32 213
67 303 80 98 14 313 12 413 -4z m-17 -439 c161 -34 335 -131 459 -255 98 -97
131 -142 188 -257 64 -127 84 -202 89 -340 l5 -121 -27 -21 c-57 -45 -107 -16
-124 70 -5 29 -17 91 -27 138 -34 176 -99 295 -228 417 -131 126 -274 192
-452 213 -245 27 -459 -47 -633 -221 -108 -109 -177 -223 -213 -358 -28 -102
-30 -331 -4 -476 46 -263 147 -477 340 -725 110 -140 126 -165 126 -187 0 -26
-39 -61 -77 -69 -39 -8 -76 24 -181 155 -240 298 -353 570 -393 946 -28 265
37 529 174 711 80 106 237 243 334 292 64 33 172 72 238 87 81 18 322 18 406
1z m-161 -864 c17 -14 27 -47 51 -165 16 -81 40 -175 55 -208 69 -165 201
-307 357 -384 131 -64 207 -78 392 -72 169 6 194 1 208 -48 15 -52 -5 -82 -65
-99 -205 -59 -471 -19 -670 101 -88 52 -225 178 -276 254 -104 155 -172 357
-172 513 0 62 3 75 23 93 39 36 66 40 97 15z"/>
</g>
</svg>
