<?xml version="1.0" encoding="UTF-8" standalone="no"?>
<!-- Created with Inkscape (http://www.inkscape.org/) -->

<svg
   xmlns:dc="http://purl.org/dc/elements/1.1/"
   xmlns:cc="http://creativecommons.org/ns#"
   xmlns:rdf="http://www.w3.org/1999/02/22-rdf-syntax-ns#"
   xmlns:svg="http://www.w3.org/2000/svg"
   xmlns="http://www.w3.org/2000/svg"
   xmlns:sodipodi="http://sodipodi.sourceforge.net/DTD/sodipodi-0.dtd"
   xmlns:inkscape="http://www.inkscape.org/namespaces/inkscape"
   width="48"
   height="48"
   viewBox="0 0 48 48.000001"
   id="svg4216"
   version="1.1"
   inkscape:version="0.91 r13725"
   sodipodi:docname="icon.svg">
  <defs
     id="defs4218" />
  <sodipodi:namedview
     id="base"
     pagecolor="#ffffff"
     bordercolor="#666666"
     borderopacity="1.0"
     inkscape:pageopacity="0.0"
     inkscape:pageshadow="2"
     inkscape:zoom="5.6"
     inkscape:cx="22.958111"
     inkscape:cy="20.895733"
     inkscape:document-units="px"
     inkscape:current-layer="layer1"
     showgrid="true"
     units="px"
     objecttolerance="10000"
     showguides="true"
     inkscape:guide-bbox="true"
     inkscape:snap-tangential="false"
     inkscape:window-width="1916"
     inkscape:window-height="510"
     inkscape:window-x="1920"
     inkscape:window-y="549"
     inkscape:window-maximized="0">
    <inkscape:grid
       type="xygrid"
       id="grid5415" />
    <sodipodi:guide
       position="1,0"
       orientation="1,0"
       id="guide5417" />
    <sodipodi:guide
       position="1,1"
       orientation="0,1"
       id="guide5419" />
    <sodipodi:guide
       position="1,47.000001"
       orientation="0,1"
       id="guide5421" />
    <sodipodi:guide
       position="47,47.000001"
       orientation="1,0"
       id="guide5423" />
    <sodipodi:guide
       position="48,48.000001"
       orientation="-0.70710678,0.70710678"
       id="guide5456" />
    <sodipodi:guide
       position="0,48.000001"
       orientation="0.70710678,0.70710678"
       id="guide5458" />
  </sodipodi:namedview>
  <metadata
     id="metadata4221">
    <rdf:RDF>
      <cc:Work
         rdf:about="">
        <dc:format>image/svg+xml</dc:format>
        <dc:type
           rdf:resource="http://purl.org/dc/dcmitype/StillImage" />
        <dc:title />
      </cc:Work>
    </rdf:RDF>
  </metadata>
  <g
     inkscape:label="Layer 1"
     inkscape:groupmode="layer"
     id="layer1"
     transform="translate(0,-1004.3622)">
    <path
       style="opacity:1;fill:#343434;fill-opacity:1;stroke:none;stroke-width:0.3125;stroke-miterlimit:4;stroke-dasharray:none;stroke-opacity:1"
       d="M 24 3 A 17 17 0 0 0 7 20 A 17 17 0 0 0 24 37 A 17 17 0 0 0 41 20 A 17 17 0 0 0 24 3 z M 24 7 A 13 13 0 0 1 37 20 A 13 13 0 0 1 24 33 A 13 13 0 0 1 11 20 A 13 13 0 0 1 24 7 z "
       transform="translate(0,1004.3622)"
       id="path5462" />
    <rect
       style="opacity:1;fill:#2a2a2a;fill-opacity:1;stroke:none;stroke-width:0.3125;stroke-miterlimit:4;stroke-dasharray:none;stroke-opacity:1"
       id="rect5460-3-3"
       width="44"
       height="32"
       x="2"
       y="1018.3622"
       rx="2"
       ry="2" />
    <path
       style="fill:#bdc1ff;fill-opacity:1"
       d="m 26.563497,1046.3143 c -2.915143,-1.0231 -5.051266,-3.3656 -5.885418,-6.4541 -0.144152,-0.5337 -0.192649,-1.0029 -0.200788,-1.9424 -0.0106,-1.2211 -0.0065,-1.2472 0.286439,-1.8434 0.695978,-1.4158 2.226132,-2.2243 3.764825,-1.9888 1.748721,0.2676 3.04005,1.8273 3.044348,3.6773 0.002,0.7881 0.6593,1.7171 1.459371,2.062 0.426433,0.1839 1.42371,0.1826 1.853126,-0.01 0.515736,-0.2222 1.044588,-0.7563 1.271761,-1.2844 0.184692,-0.4293 0.200965,-0.5803 0.155522,-1.4432 -0.1114,-2.1154 -1.019303,-4.1004 -2.525162,-5.521 -0.796736,-0.7515 -1.280531,-1.0851 -2.237566,-1.5426 -4.130537,-1.9746 -9.155578,-0.1794 -11.123086,3.9735 -0.554901,1.1713 -0.707213,1.934 -0.717608,3.5933 -0.0101,1.6088 0.08672,2.3192 0.511632,3.7544 0.300452,1.0148 0.269994,1.2814 -0.15877,1.3889 -0.453438,0.1139 -0.653877,-0.076 -0.899624,-0.8545 -0.979496,-3.1006 -0.883245,-6.1649 0.267182,-8.5063 2.019963,-4.1109 6.789922,-6.2249 11.169727,-4.9502 3.903972,1.1362 6.667419,4.5865 6.903484,8.6195 0.04208,0.7188 0.01947,1.0379 -0.103827,1.4668 -0.910253,3.1663 -5.164516,3.5895 -6.604919,0.6569 -0.249698,-0.5084 -0.341509,-0.8366 -0.402252,-1.438 -0.09049,-0.8959 -0.238285,-1.3009 -0.643158,-1.762 -0.613209,-0.6985 -1.757802,-0.9503 -2.689568,-0.5918 -0.525834,0.2023 -1.182245,0.8968 -1.337575,1.4153 -0.152474,0.5089 -0.135731,1.6417 0.03663,2.4781 0.343321,1.6662 1.102581,3.0183 2.358594,4.2003 0.92303,0.8687 1.505717,1.2296 2.740966,1.6981 0.512311,0.1943 0.964477,0.4051 1.004816,0.4687 0.21922,0.3454 -0.09193,0.9015 -0.496865,0.8881 -0.113458,-0.01 -0.474461,-0.101 -0.802231,-0.2159 z m -5.473289,-0.1114 c -0.182149,-0.074 -1.351861,-1.5015 -1.792393,-2.1871 -1.159076,-1.8044 -1.695819,-3.4572 -1.860892,-5.7303 -0.103886,-1.4306 0.213813,-2.8627 0.891509,-4.0188 0.439352,-0.7497 1.647291,-1.9336 2.397897,-2.3505 0.344578,-0.1913 0.94281,-0.4535 1.329406,-0.5826 0.613764,-0.205 0.859875,-0.235 1.940628,-0.2365 1.120277,0 1.307326,0.023 1.971192,0.2535 0.901802,0.3141 1.550156,0.6785 2.26372,1.2725 1.374855,1.1441 2.326154,3.1382 2.255672,4.7281 -0.02457,0.5543 -0.04885,0.6194 -0.279042,0.7478 -0.226644,0.1264 -0.277613,0.1264 -0.504258,0 -0.229298,-0.1282 -0.261773,-0.2139 -0.3586,-0.9472 -0.199472,-1.5105 -0.618648,-2.4001 -1.584035,-3.3619 -1.030747,-1.0269 -2.315305,-1.5552 -3.781543,-1.5552 -1.517327,0 -2.677089,0.4793 -3.752685,1.5506 -1.445926,1.4405 -1.879753,3.0385 -1.503173,5.5368 0.304932,2.023 1.114696,3.7044 2.65959,5.5223 0.327871,0.3857 0.596134,0.7801 0.596134,0.8762 0,0.3698 -0.499639,0.6409 -0.889127,0.4825 z m 7.765367,-2.2411 c -1.446649,-0.1857 -2.7277,-0.8598 -3.746055,-1.9711 -0.962707,-1.0507 -1.63401,-2.6482 -1.685448,-4.0109 -0.02124,-0.5629 -0.0015,-0.6445 0.192795,-0.8023 0.254286,-0.2063 0.463803,-0.2224 0.694904,-0.053 0.122723,0.09 0.199012,0.3528 0.287347,0.9911 0.207383,1.4984 0.731092,2.5395 1.741983,3.4629 1.07115,0.9784 2.517138,1.4171 4.036772,1.2246 0.9378,-0.1187 1.223679,0.01 1.226798,0.534 0.0025,0.3878 -0.250568,0.5264 -1.148359,0.6292 -0.451784,0.052 -0.862686,0.09 -0.913111,0.083 -0.05041,-0.01 -0.359856,-0.045 -0.687626,-0.088 z m -15.059351,-12.5754 c -0.330225,-0.2523 -0.287142,-0.5505 0.16967,-1.1743 2.918866,-3.9863 7.756042,-5.8087 12.735125,-4.798 2.712799,0.5506 5.434318,2.2645 7.118143,4.4824 0.712397,0.9384 0.761379,1.1784 0.301915,1.4795 -0.34301,0.2247 -0.608523,0.096 -1.008182,-0.4913 -0.543268,-0.7974 -1.910715,-2.1185 -2.814163,-2.7188 -4.366826,-2.9017 -10.436981,-2.3598 -14.113528,1.26 -0.368247,0.3625 -0.909086,0.9777 -1.201862,1.3671 -0.437946,0.5824 -0.577069,0.7079 -0.784705,0.7079 -0.13881,0 -0.319897,-0.051 -0.402413,-0.1145 z m 3.177178,-6.3734 c -0.22833,-0.1525 -0.316174,-0.4616 -0.202262,-0.7115 0.128581,-0.2822 1.672895,-1.0696 2.860733,-1.4586 1.523478,-0.4991 2.43786,-0.6348 4.318647,-0.641 1.921312,-0.01 2.67164,0.1 4.259945,0.6055 1.157082,0.3681 2.891169,1.1934 3.022192,1.438 0.203034,0.3795 -0.07499,0.8378 -0.508188,0.8378 -0.08811,0 -0.535223,-0.1837 -0.993593,-0.4081 -1.119319,-0.5482 -2.557481,-1.0189 -3.671858,-1.2016 -1.116509,-0.1833 -3.666545,-0.1318 -4.675625,0.094 -1.013026,0.2269 -2.245298,0.6626 -3.12893,1.1064 -0.796261,0.3999 -1.077987,0.4745 -1.281061,0.3389 z"
       id="path5383"
       inkscape:connector-curvature="0" />
    <circle
       style="opacity:1;fill:#181818;fill-opacity:1;stroke:none;stroke-width:0.3125;stroke-miterlimit:4;stroke-dasharray:none;stroke-opacity:1"
       id="path5512"
       cx="6"
       cy="1022.3622"
       r="2" />
    <circle
       style="opacity:1;fill:#181818;fill-opacity:1;stroke:none;stroke-width:0.3125;stroke-miterlimit:4;stroke-dasharray:none;stroke-opacity:1"
       id="path5512-5"
       cx="6"
       cy="1046.3622"
       r="2" />
    <circle
       style="opacity:1;fill:#181818;fill-opacity:1;stroke:none;stroke-width:0.3125;stroke-miterlimit:4;stroke-dasharray:none;stroke-opacity:1"
       id="path5512-1"
       cx="42"
       cy="1022.3622"
       r="2" />
    <circle
       style="opacity:1;fill:#181818;fill-opacity:1;stroke:none;stroke-width:0.3125;stroke-miterlimit:4;stroke-dasharray:none;stroke-opacity:1"
       id="path5512-0"
       cx="42"
       cy="1046.3622"
       r="2" />
  </g>
</svg>
